HIERARCHY
ROOT Hips
{
  OFFSET 179.979 97.3047 303.174
  CHANNELS 6 Xposition Yposition Zposition Zrotation Xrotation Yrotation
  JOINT Spine
  {
    OFFSET 0.000859786 9.92346 -1.22733
    CHANNELS 3 Zrotation Xrotation Yrotation
    JOINT Spine1
    {
      OFFSET 0 11.732 0
      CHANNELS 3 Zrotation Xrotation Yrotation
      JOINT Spine2
      {
        OFFSET 0 13.4588 0
        CHANNELS 3 Zrotation Xrotation Yrotation
        JOINT Neck
        {
          OFFSET 2.54812e-05 15.0278 0.877907
          CHANNELS 3 Zrotation Xrotation Yrotation
          JOINT Head
          {
            OFFSET 0 10.3218 3.14243
            CHANNELS 3 Zrotation Xrotation Yrotation
            End Site
            {
              OFFSET 0 0 0
            }
          }
        }
        JOINT LeftShoulder
        {
          OFFSET 6.10582 9.10629 0.757062
          CHANNELS 3 Zrotation Xrotation Yrotation
          JOINT LeftArm
          {
            OFFSET 0 12.9223 0
            CHANNELS 3 Zrotation Xrotation Yrotation
            JOINT LeftForeArm
            {
              OFFSET 0 27.4047 0
              CHANNELS 3 Zrotation Xrotation Yrotation
              JOINT LeftHand
              {
                OFFSET -1.28204e-05 27.6145 0
                CHANNELS 3 Zrotation Xrotation Yrotation
                End Site
                {
                  OFFSET 0 0 0
                }
              }
            }
          }
        }
        JOINT RightShoulder
        {
          OFFSET -6.1057 9.10638 0.757076
          CHANNELS 3 Zrotation Xrotation Yrotation
          JOINT RightArm
          {
            OFFSET 0 12.9223 0
            CHANNELS 3 Zrotation Xrotation Yrotation
            JOINT RightForeArm
            {
              OFFSET 0 27.4047 0
              CHANNELS 3 Zrotation Xrotation Yrotation
              JOINT RightHand
              {
                OFFSET 1.28428e-05 27.6145 1.44975e-05
                CHANNELS 3 Zrotation Xrotation Yrotation
                End Site
                {
                  OFFSET 0 0 0
                }
              }
            }
          }
        }
      }
    }
  }
  JOINT LeftUpLeg
  {
    OFFSET 9.12387 -6.65719 -0.0554031
    CHANNELS 3 Zrotation Xrotation Yrotation
    JOINT LeftLeg
    {
      OFFSET 0 40.5994 0
      CHANNELS 3 Zrotation Xrotation Yrotation
      JOINT LeftFoot
      {
        OFFSET 0 42.099 0
        CHANNELS 3 Zrotation Xrotation Yrotation
        JOINT LeftToeBase
        {
          OFFSET 0 15.7216 0
          CHANNELS 3 Zrotation Xrotation Yrotation
          End Site
          {
            OFFSET 0 0 0
          }
        }
      }
    }
  }
  JOINT RightUpLeg
  {
    OFFSET -9.12503 -6.6556 -0.0553527
    CHANNELS 3 Zrotation Xrotation Yrotation
    JOINT RightLeg
    {
      OFFSET 0 40.5994 0
      CHANNELS 3 Zrotation Xrotation Yrotation
      JOINT RightFoot
      {
        OFFSET 0 42.099 0
        CHANNELS 3 Zrotation Xrotation Yrotation
        JOINT RightToeBase
        {
          OFFSET 0 15.7216 0
          CHANNELS 3 Zrotation Xrotation Yrotation
          End Site
          {
            OFFSET 0 0 0
          }
        }
      }
    }
  }
}
MOTION
Frames:	15
Frame Time:	0.0333333
171.871 99.2533 19.9154 1.03245 -4.61747 -1.87779 -0.242294 -5.45338 0.129884 -0.48416 3.01951 0.359952 -0.524752 9.61383 0.364596 3.08833 23.2527 -1.76067 -2.30204 -18.219 -0.382342 -89.1067 -19.3873 89.8205 20.0884 4.08528 -9.55098 3.99735 -14.7299 -0.596833 -13.3961 -3.40251 -10.4614 95.3889 -13.2473 -90.506 -9.78536 5.58157 14.9251 -9.26257 -18.11 0.74726 17.1344 -10.8805 -4.82442 -179.33 -6.75251 0.727888 -3.88901 -7.67732 -3.2161 14.3404 75.3548 -10.8088 -0.965278 26.367 -3.60229 179.265 -4.47225 -2.03546 2.25751 -13.5456 2.72221 -15.2685 77.3801 11.4861 0.963527 26.3682 3.55537 
171.874 99.2534 19.9241 1.03342 -4.62499 -1.86272 -0.239685 -5.45338 0.1302 -0.479825 3.01951 0.353985 -0.519733 9.61383 0.358557 3.0929 23.2435 -1.76057 -2.30182 -18.188 -0.382274 -89.1067 -19.3894 89.8205 20.0945 4.08506 -9.56565 3.99117 -14.7244 -0.596818 -13.4088 -3.39449 -10.4542 95.3868 -13.2546 -90.5059 -9.79148 5.60445 14.9257 -9.26273 -18.0984 0.747211 17.1539 -10.8798 -4.81 -179.33 -6.71474 0.735795 -3.89188 -7.72803 -3.21649 14.3404 75.3548 -10.8088 -0.965278 26.367 -3.60229 179.272 -4.50111 -2.02398 2.24298 -13.5365 2.7238 -15.2797 77.3824 11.5061 0.963527 26.3682 3.55537 
171.885 99.2537 19.9481 1.02861 -4.64357 -1.83111 -0.232252 -5.45338 0.131101 -0.467129 3.01952 0.33878 -0.505275 9.61385 0.343165 3.0736 23.2118 -1.75084 -2.30127 -18.1101 -0.382103 -89.106 -19.4246 89.8158 20.133 4.08459 -9.60286 3.96636 -14.7135 -0.596788 -13.3893 -3.37657 -10.3667 95.3707 -13.269 -90.5086 -9.80971 5.67428 14.9238 -9.26213 -18.0764 0.747117 17.2165 -10.8682 -4.71053 -179.329 -6.75962 0.774275 -3.89183 -7.71919 -3.22096 14.359 75.3611 -10.8278 -0.965278 26.367 -3.60229 179.292 -4.51616 -2.03401 2.21636 -13.5671 2.75322 -15.3555 77.3859 11.6069 0.963527 26.3682 3.55537 
171.899 99.254 19.9742 1.02112 -4.66407 -1.81512 -0.224706 -5.45339 0.132017 -0.45331 3.01952 0.328427 -0.490215 9.61387 0.33267 3.05276 23.1773 -1.74037 -2.30965 -18.0543 -0.381982 -89.1099 -19.4851 89.8104 20.1868 4.0684 -9.63283 3.91813 -14.7084 -0.596774 -13.351 -3.34484 -10.2057 95.3689 -13.2768 -90.5084 -9.8213 5.73014 14.9118 -9.27519 -18.0732 0.747103 17.2799 -10.8298 -4.69382 -179.328 -6.81061 0.855421 -3.89464 -7.70185 -3.25937 14.4779 75.3717 -10.9459 -0.965278 26.367 -3.60229 179.301 -4.54386 -2.05382 2.20843 -13.5828 2.77801 -15.4225 77.3887 11.6873 0.963527 26.3682 3.55537 
171.915 99.2543 20.0041 1.01321 -4.68581 -1.81224 -0.21941 -5.45339 0.132659 -0.442478 3.01952 0.326638 -0.479173 9.61388 0.330668 3.06553 23.1468 -1.74427 -2.33455 -18.0337 -0.381937 -89.1172 -19.5713 89.8027 20.2623 4.02148 -9.64822 3.86149 -14.7032 -0.59676 -13.3096 -3.27892 -10.1235 95.3672 -13.2845 -90.5079 -9.81494 5.79299 14.9444 -9.30135 -18.0659 0.744457 17.3104 -10.7402 -4.79132 -179.334 -6.90343 0.930119 -3.8953 -7.64637 -3.29835 14.6147 75.3811 -11.0766 -0.965278 26.367 -3.60229 179.302 -4.59967 -2.10577 2.21516 -13.5682 2.81351 -15.525 77.3877 11.7957 0.963527 26.3682 3.55537 
171.93 99.2546 20.0374 1.00274 -4.71375 -1.81279 -0.214914 -5.45339 0.133204 -0.432995 3.01952 0.328704 -0.469712 9.61389 0.332529 3.09358 23.1313 -1.75381 -2.37067 -18.0713 -0.378811 -89.1277 -19.6661 89.7941 20.3295 3.957 -9.68905 3.81642 -14.6994 -0.596749 -13.2734 -3.21818 -10.1231 95.3653 -13.2835 -90.508 -9.77855 5.82262 14.9383 -9.27325 -18.0338 0.741169 17.3059 -10.547 -4.73321 -179.337 -6.94233 0.972833 -3.89813 -7.64996 -3.32529 14.7074 75.3912 -11.1631 -0.965278 26.367 -3.60229 179.306 -4.58901 -2.15329 2.22568 -13.6293 2.84616 -15.6134 77.389 11.8881 0.963527 26.3682 3.55537 
171.942 99.2548 20.0719 0.991958 -4.7445 -1.8145 -0.212981 -5.45339 0.133439 -0.425861 3.02444 0.332376 -0.462873 9.61882 0.336115 3.13609 23.125 -1.75804 -2.40929 -18.1688 -0.364694 -89.117 -19.7547 89.7865 20.375 3.9235 -9.74161 3.78476 -14.7002 -0.596752 -13.2459 -3.21623 -10.146 95.3634 -13.2627 -90.5095 -9.69353 5.8309 14.915 -9.23225 -18.0081 0.738984 17.2687 -10.3152 -4.58954 -179.343 -6.97676 0.992346 -3.90027 -7.66275 -3.33966 14.7653 75.4043 -11.2154 -0.965278 26.367 -3.60229 179.313 -4.69891 -2.18237 2.22023 -13.5765 2.86071 -15.6692 77.3953 11.9493 0.963527 26.3682 3.55537 
171.953 99.2551 20.1055 0.986037 -4.77513 -1.81391 -0.211886 -5.45339 0.133571 -0.423996 3.03417 0.335403 -0.460752 9.62854 0.339414 3.17734 23.1096 -1.75712 -2.43358 -18.2947 -0.347532 -89.088 -19.8033 89.7829 20.3528 3.91869 -9.77491 3.77823 -14.6976 -0.596744 -13.2285 -3.26189 -10.1639 95.3622 -13.266 -90.5093 -9.6231 5.83868 14.9153 -9.19303 -18.0195 0.739641 17.2176 -10.1063 -4.50095 -179.348 -7.07754 0.989278 -3.89671 -7.60851 -3.33538 14.773 75.4179 -11.2186 -0.965278 26.367 -3.60229 179.318 -4.71617 -2.20084 2.21555 -13.6211 2.87276 -15.7108 77.4072 11.9978 0.963527 26.3682 3.55537 
171.961 99.2553 20.1365 0.983937 -4.79434 -1.80759 -0.211665 -5.45339 0.133598 -0.423455 3.04188 0.335529 -0.460789 9.63624 0.339869 3.21784 23.0927 -1.76667 -2.47548 -18.4083 -0.340633 -89.0656 -19.8062 89.7832 20.2724 3.90423 -9.79507 3.76978 -14.687 -0.596716 -13.2186 -3.28295 -10.1397 95.3619 -13.3012 -90.5067 -9.58525 5.85155 14.931 -9.17923 -18.0922 0.746736 17.2276 -9.9705 -4.60716 -179.35 -7.08542 0.969137 -3.89737 -7.63762 -3.32479 14.7713 75.4317 -11.2122 -0.965278 26.367 -3.60229 179.319 -4.72161 -2.21386 2.21225 -13.67 2.884 -15.7497 77.4221 12.0453 0.963527 26.3682 3.55537 
171.961 99.2551 20.1633 0.984588 -4.79332 -1.78817 -0.212348 -5.45617 0.133515 -0.425472 3.03643 0.329953 -0.46256 9.6308 0.334255 3.22581 23.1255 -1.77596 -2.49788 -18.5161 -0.347376 -89.0691 -19.8181 89.7821 20.2201 3.8679 -9.70869 3.73938 -14.6828 -0.596704 -13.2152 -3.24352 -10.0462 95.3629 -13.324 -90.5052 -9.54491 5.83582 14.9115 -9.16348 -18.1575 0.752986 17.2156 -9.88407 -4.85205 -179.345 -7.09821 0.976668 -3.89725 -7.64278 -3.3205 14.7739 75.4457 -11.2109 -0.965278 26.367 -3.60229 179.331 -4.74319 -2.18076 2.19147 -13.6782 2.87268 -15.7241 77.4336 12.0298 0.963527 26.3682 3.55537 
171.961 99.2547 20.1887 0.985949 -4.78302 -1.7596 -0.213969 -5.46277 0.133318 -0.43234 3.02319 0.319878 -0.468247 9.61758 0.324022 3.23547 23.16 -1.7966 -2.51119 -18.5519 -0.364453 -89.0752 -19.858 89.7794 20.231 3.83094 -9.59367 3.67561 -14.6585 -0.596638 -13.1825 -3.31314 -10.0392 95.3767 -13.3415 -90.5016 -9.51015 5.80193 14.8849 -9.17156 -18.209 0.758427 17.3135 -9.82411 -4.8744 -179.339 -7.09422 1.00782 -3.90306 -7.65453 -3.32474 14.7948 75.4562 -11.2278 -0.965278 26.367 -3.60229 179.347 -4.78667 -2.1024 2.15755 -13.6487 2.83773 -15.6308 77.4421 11.9458 0.963527 26.3682 3.55537 
171.959 99.2543 20.2164 0.986109 -4.77578 -1.74347 -0.218376 -5.47091 0.132783 -0.442297 3.00683 0.316351 -0.477808 9.60121 0.320432 3.21982 23.192 -1.82128 -2.47888 -18.5126 -0.397938 -89.0869 -19.9173 89.7745 20.2867 3.83515 -9.63172 3.65273 -14.6872 -0.599302 -13.1415 -3.39301 -9.9668 95.4007 -13.3593 -90.4962 -9.49089 5.78663 14.7803 -9.19858 -18.2546 0.762026 17.3895 -9.93099 -4.79663 -179.335 -7.08664 1.03773 -3.91148 -7.67298 -3.33573 14.8372 75.4657 -11.2656 -0.965278 26.367 -3.60229 179.357 -4.80693 -2.02366 2.1283 -13.6396 2.7967 -15.5167 77.4497 11.8376 0.963527 26.3682 3.55537 
171.955 99.2539 20.2442 0.985459 -4.76788 -1.73975 -0.223849 -5.48159 0.132119 -0.453607 2.98542 0.317282 -0.489208 9.57983 0.321361 3.18802 23.2201 -1.83778 -2.41958 -18.4039 -0.429942 -89.1074 -19.9763 89.7671 20.3499 3.88335 -9.8018 3.69265 -14.7538 -0.607004 -13.1011 -3.43853 -9.93688 95.4192 -13.3723 -90.4946 -9.49677 5.83359 14.6001 -9.24962 -18.3478 0.764957 17.4062 -9.98564 -4.53733 -179.33 -7.12043 1.06196 -3.91837 -7.65236 -3.3468 14.8812 75.4704 -11.3061 -0.965278 26.367 -3.60229 179.366 -4.7551 -1.9458 2.11058 -13.6969 2.75244 -15.3865 77.456 11.7064 0.963527 26.3682 3.55537 
171.946 99.2534 20.2691 0.983875 -4.75652 -1.75424 -0.229659 -5.49449 0.131414 -0.464261 2.95967 0.32474 -0.500755 9.55406 0.328919 3.16034 23.2422 -1.85805 -2.41283 -18.2901 -0.460989 -89.1249 -20.0266 89.7625 20.4072 3.96692 -9.98668 3.7683 -14.7836 -0.611472 -13.0838 -3.52702 -10.0418 95.4695 -13.3824 -90.4938 -9.52903 5.91824 14.5873 -9.35608 -18.4304 0.768202 17.2958 -10.0004 -4.41448 -179.323 -7.1173 1.06913 -3.92796 -7.66729 -3.36119 14.9259 75.4767 -11.3506 -0.965278 26.367 -3.60229 179.365 -4.79505 -1.91588 2.10957 -13.6463 2.72482 -15.307 77.4489 11.6179 0.963527 26.3682 3.55537 
171.932 99.253 20.2922 0.982102 -4.74407 -1.78044 -0.234866 -5.50929 0.137133 -0.474756 2.93006 0.337494 -0.512738 9.52442 0.34179 3.11479 23.2795 -1.86156 -2.41119 -18.2299 -0.482377 -89.1423 -20.04 89.7609 20.4393 4.05739 -10.0515 3.83369 -14.7755 -0.611781 -13.0678 -3.56798 -10.1041 95.5307 -13.358 -90.4981 -9.54907 5.99619 14.5834 -9.43798 -18.3705 0.768457 17.3156 -9.87373 -4.3253 -179.313 -7.0674 1.09222 -3.9459 -7.74696 -3.39745 15.027 75.4984 -11.4531 -0.965278 26.367 -3.60229 179.366 -4.83969 -1.87163 2.09765 -13.6015 2.68072 -15.1994 77.455 11.499 0.963527 26.3682 3.55537 
